<svg xmlns="http://www.w3.org/2000/svg" viewBox="0 0 200 240" role="img" aria-label="Secran Gestão">
  <defs>
    <clipPath id="hex-clip-full">
      <polygon points="50,8 150,8 192,100 150,192 50,192 8,100"/>
    </clipPath>
  </defs>
  <g clip-path="url(#hex-clip-full)">
    <rect width="200" height="200" fill="#FFFFFF"/>
    <path d="M 0,0 L 200,0 L 200,78 L 60,78 L 60,62 L 145,62 L 145,18 L 55,18 L 55,78 L 0,78 Z" fill="#1A1A1A"/>
    <rect x="0" y="86" width="200" height="28" fill="#BA7211"/>
    <path d="M 0,122 L 145,122 L 145,182 L 55,182 L 55,138 L 140,138 L 140,122 L 200,122 L 200,200 L 0,200 Z" fill="#1A1A1A"/>
  </g>
  <text x="100" y="222" text-anchor="middle" font-family="Outfit, Montserrat, sans-serif" font-weight="800" font-size="28" fill="#1A1A1A" letter-spacing="2">SECRAN</text>
  <text x="100" y="236" text-anchor="middle" font-family="Outfit, Montserrat, sans-serif" font-weight="500" font-size="11" fill="#1A1A1A" letter-spacing="3">GESTÃO</text>
</svg>
